# xmcd
#
# Track frame offsets: 
#        150
#        11584
#        24170
#        38963
#        50626
#        63330
#        76391
#        87082
#        100260
#        113507
#        127004
#        141675
#        153803
#        167330
#        179534
#        193611
#        206209
#        219751
#        232082
#        246059
#
# Disc length: 3428 seconds
#
# Revision: 1
# Processed by: cddbd v1.4PL0 Copyright (c) Steve Scherf et al.
# Submitted via: ExactAudioCopy v0.90b4
#
DISCID=0d0d6214
DTITLE=Django Reinhardt - Guitar Legends
DYEAR=2000
DGENRE=Blues
TTITLE0=I'll See You In My Dreams
TTITLE1=All Of Me
TTITLE2=Nuages
TTITLE3=How High The Moon
TTITLE4=Tea For Two
TTITLE5=Honeysuckle Rose
TTITLE6=I Can't Give You Anything But Love
TTITLE7=Djangology
TTITLE8=Improvisation
TTITLE9=Parfum
TTITLE10=Minor Swing
TTITLE11=Improvisation No. 2
TTITLE12=Daphne
TTITLE13=Saint-Louis Blues
TTITLE14=Sweet Georgia Brown
TTITLE15=Swing 42
TTITLE16=In A Sentimental Mood
TTITLE17=Bouncin' Around
TTITLE18=You Rascal You
TTITLE19=Naguine
EXTD=
EXTT0=
EXTT1=
EXTT2=
EXTT3=
EXTT4=
EXTT5=
EXTT6=
EXTT7=
EXTT8=
EXTT9=
EXTT10=
EXTT11=
EXTT12=
EXTT13=
EXTT14=
EXTT15=
EXTT16=
EXTT17=
EXTT18=
EXTT19=
PLAYORDER=
